<?xml version="1.0" encoding="UTF-8"?>
<svg version="1.1" xmlns="http://www.w3.org/2000/svg" width="50" height="50">
<path d="M0 0 C2.25 0.0625 2.25 0.0625 5 1 C9.60223795 6.72170123 9.46467731 11.86204022 9 19 C9.70769531 18.67902344 10.41539063 18.35804687 11.14453125 18.02734375 C16.91080699 15.9527466 23.16596321 15.98487897 28.93359375 18.05078125 C32.36796481 19.74055163 35.2842039 21.2842039 38 24 C38.1011429 28.34914486 36.76003761 30.62741516 33.875 33.6875 C27.66584941 39.35726983 22.05089142 40.43440017 13.82421875 40.23828125 C10.64242749 39.96983137 7.92071433 39.29809526 5 38 C4.01 39.32 3.02 40.64 2 42 C1.01 41.67 0.02 41.34 -1 41 C-0.01 39.02 0.98 37.04 2 35 C1.34 34.67 0.68 34.34 0 34 C0 31.69 0 29.38 0 27 C-0.61875 26.7525 -1.2375 26.505 -1.875 26.25 C-4.46136275 24.72861015 -4.91334075 23.7669121 -6 21 C-6.89865886 13.27386797 -5.83224772 7.98612642 -1.3125 1.625 C-0.879375 1.08875 -0.44625 0.5525 0 0 Z M1 4 C-2.77304004 9.54165256 -3.54330269 13.34454208 -3 20 C-2.67 20 -2.34 20 -2 20 C-1.34 16.7 -0.68 13.4 0 10 C0.99 9.67 1.98 9.34 3 9 C2.67 9.845625 2.34 10.69125 2 11.5625 C0.93894046 15.20989216 0.84890987 18.22274664 1 22 C3.99139791 21.31617939 3.99139791 21.31617939 5.1875 19.4375 C6.78904388 14.63286837 6.6984567 10.52390553 4.625 6 C4.08875 5.34 3.5525 4.68 3 4 C2.34 4 1.68 4 1 4 Z M10 23 C7.63899477 26.21076478 7.63899477 26.21076478 7 30 C7.721875 29.71125 8.44375 29.4225 9.1875 29.125 C10.115625 28.75375 11.04375 28.3825 12 28 C12.7528125 27.6596875 13.505625 27.319375 14.28125 26.96875 C17.3565115 25.87296717 20.0599012 25.58945706 23.3125 25.375 C24.38113281 25.30023437 25.44976562 25.22546875 26.55078125 25.1484375 C27.76314453 25.07496094 27.76314453 25.07496094 29 25 C29 25.99 29 26.98 29 28 C28.29875 27.95359375 27.5975 27.9071875 26.875 27.859375 C20.40245258 27.61313678 15.30717087 28.02294714 10 32 C9.34 32.99 8.68 33.98 8 35 C12.57946712 37.64849366 16.83294526 37.52407528 22 37 C27.87225993 34.89485022 31.5767887 31.13481695 35 26 C29.19590493 21.02506137 24.94991578 19.56981998 17.37109375 19.75 C14.19425154 20.08495536 12.3993928 20.89144269 10 23 Z M2 24 C2.33 27.3 2.66 30.6 3 34 C3.33 34 3.66 34 4 34 C4.33 30.7 4.66 27.4 5 24 C4.01 24 3.02 24 2 24 Z " fill="#000000" transform="translate(9,3)"/>
</svg>
