<?xml version="1.0" encoding="UTF-8"?>
<svg version="1.1" xmlns="http://www.w3.org/2000/svg" width="64" height="64">
<path d="M0 0 C4.81212476 3.7427637 4.81212476 3.7427637 5.36026001 7.41081238 C4.89524748 10.75285607 3.78399354 11.85500587 1.42333984 14.23950195 C0.64187592 15.03995438 -0.13958801 15.8404068 -0.94473267 16.66511536 C-1.80086151 17.5142601 -2.65699036 18.36340485 -3.5390625 19.23828125 C-4.84948013 20.55943184 -4.84948013 20.55943184 -6.18637085 21.90727234 C-8.51244744 24.24313107 -10.85059175 26.56609952 -13.19274902 28.88580322 C-14.62299718 30.31050495 -16.04205837 31.74542984 -17.45751953 33.18481445 C-20.17750964 35.94778677 -22.91725435 38.68949576 -25.6640625 41.42578125 C-26.50804596 42.28504715 -27.35202942 43.14431305 -28.22158813 44.02961731 C-29.02196503 44.81430893 -29.82234192 45.59900055 -30.64697266 46.4074707 C-31.69288071 47.45074272 -31.69288071 47.45074272 -32.75991821 48.51509094 C-35.68796813 50.45604143 -37.55269578 50.39082225 -41 50 C-43.375 48.375 -43.375 48.375 -45 46 C-45.39082225 42.55269578 -45.45604143 40.68796813 -43.51509094 37.75991821 C-42.47181892 36.71401016 -42.47181892 36.71401016 -41.4074707 35.64697266 C-40.62277908 34.84659576 -39.83808746 34.04621887 -39.02961731 33.22158813 C-38.17035141 32.37760468 -37.31108551 31.53362122 -36.42578125 30.6640625 C-35.54979782 29.78471039 -34.67381439 28.90535828 -33.77128601 27.99935913 C-31.44150372 25.66995228 -29.09797636 23.35550413 -26.7489624 21.04553223 C-25.31298443 19.62547905 -23.88817973 18.19514854 -22.46704102 16.76025391 C-19.73762768 14.00593067 -16.9913279 11.26974355 -14.23828125 8.5390625 C-12.96456413 7.25486923 -12.96456413 7.25486923 -11.66511536 5.94473267 C-10.86466293 5.16326874 -10.06421051 4.38180481 -9.23950195 3.57666016 C-8.54000931 2.88416168 -7.84051666 2.19166321 -7.11982727 1.47817993 C-4.49875576 -0.34952337 -3.13400604 -0.46833053 0 0 Z M-6.8203125 8.625 C-7.92696886 9.74498957 -9.0283192 10.87024066 -10.125 12 C-10.96998047 12.85851562 -10.96998047 12.85851562 -11.83203125 13.734375 C-13.22586268 15.15183069 -14.61351636 16.57535626 -16 18 C-15.01 18.99 -14.02 19.98 -13 21 C-9.04 17.04 -5.08 13.08 -1 9 C-1.33 8.01 -1.66 7.02 -2 6 C-4.39814937 5.77289795 -4.39814937 5.77289795 -6.8203125 8.625 Z " fill="#000000" transform="translate(52,8)"/>
<path d="M0 0 C1.32 0 2.64 0 4 0 C4.33 1.98 4.66 3.96 5 6 C7.97 6.495 7.97 6.495 11 7 C11 8.32 11 9.64 11 11 C9.02 11.33 7.04 11.66 5 12 C4.67 13.98 4.34 15.96 4 18 C2.68 18 1.36 18 0 18 C-0.33 16.02 -0.66 14.04 -1 12 C-3.97 11.505 -3.97 11.505 -7 11 C-7 9.68 -7 8.36 -7 7 C-5.02 6.67 -3.04 6.34 -1 6 C-0.67 4.02 -0.34 2.04 0 0 Z " fill="#000000" transform="translate(47,39)"/>
<path d="M0 0 C0.99 0.33 1.98 0.66 3 1 C3.33 1.99 3.66 2.98 4 4 C6.00016466 5.20882096 6.00016466 5.20882096 8 6 C7.67 6.99 7.34 7.98 7 9 C6.01 9.33 5.02 9.66 4 10 C2.79117904 12.00016466 2.79117904 12.00016466 2 14 C1.01 13.67 0.02 13.34 -1 13 C-1.33 12.01 -1.66 11.02 -2 10 C-4.00016466 8.79117904 -4.00016466 8.79117904 -6 8 C-5.67 7.01 -5.34 6.02 -5 5 C-4.01 4.67 -3.02 4.34 -2 4 C-0.79117904 1.99983534 -0.79117904 1.99983534 0 0 Z " fill="#000000" transform="translate(13,6)"/>
<path d="M0 0 C0.99 0 1.98 0 3 0 C3 0.99 3 1.98 3 3 C3.99 3 4.98 3 6 3 C6 3.99 6 4.98 6 6 C5.01 6 4.02 6 3 6 C3 6.99 3 7.98 3 9 C2.01 9 1.02 9 0 9 C0 8.01 0 7.02 0 6 C-0.99 6 -1.98 6 -3 6 C-3 5.01 -3 4.02 -3 3 C-2.01 3 -1.02 3 0 3 C0 2.01 0 1.02 0 0 Z " fill="#000000" transform="translate(30,6)"/>
</svg>
