<?xml version="1.0" encoding="UTF-8"?>
<svg version="1.1" xmlns="http://www.w3.org/2000/svg" width="64" height="64">
<path d="M0 0 C0 0.99 0 1.98 0 3 C-0.66 3.33 -1.32 3.66 -2 4 C-1.88693303 5.95894361 -1.88693303 5.95894361 -1 8 C0.66627283 8.66765041 2.33300318 9.33415932 4 10 C7.9691142 12.82617556 11.54282594 15.75984712 12.546875 20.6796875 C12.56660837 24.08369354 12.53585926 26.92828147 11 30 C12.98 30 14.96 30 17 30 C17 28.68 17 27.36 17 26 C20.78786597 26.5260925 23.17152224 27.38103911 26 30 C26 30.66 26 31.32 26 32 C20.70588235 36 20.70588235 36 17 36 C17 34.68 17 33.36 17 32 C15.02 32 13.04 32 11 32 C11.33 32.66 11.66 33.32 12 34 C12.70010283 37.49390939 12.78226064 40.51448424 12 44 C9.08887654 48.09262545 5.58761589 52.15946491 0.703125 53.74609375 C0.14109375 53.82988281 -0.4209375 53.91367187 -1 54 C-1.33 55.32 -1.66 56.64 -2 58 C-1.01 58.495 -1.01 58.495 0 59 C0 59.99 0 60.98 0 62 C-1.65 61.34 -3.3 60.68 -5 60 C-5.04253906 59.03964844 -5.08507812 58.07929687 -5.12890625 57.08984375 C-5.88814743 51.79383632 -8.94756405 47.87203602 -11.9375 43.5625 C-12.48857422 42.73556641 -13.03964844 41.90863281 -13.60742188 41.05664062 C-15.69501175 37.94570872 -15.69501175 37.94570872 -18 35 C-18.66 35 -19.32 35 -20 35 C-20.495 35.495 -20.495 35.495 -21 36 C-23.01964199 36.07244053 -25.04167124 36.08377188 -27.0625 36.0625 C-28.71958984 36.04896484 -28.71958984 36.04896484 -30.41015625 36.03515625 C-31.26480469 36.02355469 -32.11945312 36.01195312 -33 36 C-33 33.66666667 -33 31.33333333 -33 29 C-33.33 28.01 -33.66 27.02 -34 26 C-31.87527424 25.94613371 -29.75016348 25.90726929 -27.625 25.875 C-25.84996094 25.84019531 -25.84996094 25.84019531 -24.0390625 25.8046875 C-21 26 -21 26 -19 28 C-9.5190851 16.0849356 -9.5190851 16.0849356 -5 2 C-2 0 -2 0 0 0 Z M-4 10 C-4.77752771 11.09290587 -5.50658592 12.22035638 -6.21484375 13.359375 C-6.65376953 14.06320313 -7.09269531 14.76703125 -7.54492188 15.4921875 C-8.00447266 16.23726562 -8.46402344 16.98234375 -8.9375 17.75 C-9.39318359 18.47960938 -9.84886719 19.20921875 -10.31835938 19.9609375 C-12.37236411 23.26899784 -14.25430606 26.50861211 -16 30 C-7.75 30 0.5 30 9 30 C9.33 27.69 9.66 25.38 10 23 C9.29875 22.62875 8.5975 22.2575 7.875 21.875 C3.28054747 18.87861791 -0.98551091 15.23767164 -3 10 C-3.33 10 -3.66 10 -4 10 Z M-16 32 C-13.12894722 37.16789501 -10.37201498 42.12962385 -7.1875 47.0625 C-6.58292969 48.00222656 -5.97835938 48.94195312 -5.35546875 49.91015625 C-4.90816406 50.59980469 -4.46085937 51.28945313 -4 52 C-1.80932181 51.13578599 -1.80932181 51.13578599 -0.75 48.8125 C1.97103529 44.43940756 5.04053544 40.65315485 10 39 C9.67 36.69 9.34 34.38 9 32 C0.75 32 -7.5 32 -16 32 Z " fill="#000000" transform="translate(36,1)"/>
</svg>
