<?xml version="1.0" encoding="UTF-8"?>
<svg version="1.1" xmlns="http://www.w3.org/2000/svg" width="64" height="64">
<path d="M0 0 C3.96 0 7.92 0 12 0 C13 5 13 5 12 7 C12.99 7.33 13.98 7.66 15 8 C15 9.98 15 11.96 15 14 C14.01 14.33 13.02 14.66 12 15 C11.95390467 18.450565 12.09224757 21.65925993 13 25 C14.64800045 26.53090568 16.1668067 27.2486099 18.21875 28.1484375 C21.73756997 29.83068038 23.48306528 32.89547042 25.0859375 36.3203125 C26.9874649 41.89487574 26.75395457 47.85718175 24.8125 53.375 C21.60386805 58.02198421 18.0541537 61.46220005 13 64 C6.67310565 64.90708163 0.03158941 65.17734033 -5.625 61.875 C-9.8094117 58.72101088 -12.34535266 54.96394203 -14 50 C-14.7033151 42.8630812 -14.36200958 36.88271017 -10 31 C-7.30310267 28.17635554 -4.75240998 26.25080333 -1 25 C-0.67 21.7 -0.34 18.4 0 15 C-0.99 14.67 -1.98 14.34 -3 14 C-3 12.02 -3 10.04 -3 8 C-2.01 7.67 -1.02 7.34 0 7 C-0.2784375 5.824375 -0.2784375 5.824375 -0.5625 4.625 C-1 2 -1 2 0 0 Z M3 2 C2.67 2.66 2.34 3.32 2 4 C2.33 4.99 2.66 5.98 3 7 C4.98 7 6.96 7 9 7 C9.59070014 5.05396726 9.59070014 5.05396726 10 3 C8.87465895 1.64381501 8.87465895 1.64381501 5.9375 1.9375 C4.968125 1.958125 3.99875 1.97875 3 2 Z M0 10 C0 10.66 0 11.32 0 12 C3.96 12 7.92 12 12 12 C12 11.34 12 10.68 12 10 C8.04 10 4.08 10 0 10 Z M2 15 C2 19.29 2 23.58 2 28 C0.35 28.33 -1.3 28.66 -3 29 C-5.04975862 30.74380424 -5.04975862 30.74380424 -6.75 32.9375 C-7.34296875 33.64777344 -7.9359375 34.35804687 -8.546875 35.08984375 C-11.82571083 39.39992634 -11.56623594 43.75445318 -11 49 C-9.32136143 53.84433197 -6.28721148 57.24393548 -2 60 C2.84577221 62.26136037 6.91453121 62.40358939 12 61 C17.26956454 58.16254217 21.08111197 54.75666408 23 49 C23.5635668 43.31014289 23.32796433 38.83091597 20 34 C17.82792879 31.76630975 15.62792379 29.68426025 13 28 C12.01 28 11.02 28 10 28 C10 23.71 10 19.42 10 15 C7.36 15 4.72 15 2 15 Z " fill="#000000" transform="translate(26,0)"/>
<path d="M0 0 C2.22031429 0.73312264 4.41896979 1.50256122 6.609375 2.3203125 C7.2590625 1.58941406 7.2590625 1.58941406 7.921875 0.84375 C9.609375 -0.6796875 9.609375 -0.6796875 12.609375 -1.0546875 C15.609375 -0.6796875 15.609375 -0.6796875 17.484375 0.3203125 C19.30681544 3.56020661 19.21797102 6.75664469 18.609375 10.3203125 C16.37074921 14.63173995 13.89843001 17.99707437 9.609375 20.3203125 C4.67917504 21.13498942 -0.14558069 21.52024997 -4.65625 19.109375 C-8.25186763 16.13317049 -10.98934952 13.03543622 -11.69140625 8.28515625 C-11.72247497 2.910268 -11.72247497 2.910268 -10.265625 0.3203125 C-6.77523618 -1.54122821 -3.72125382 -1.05800354 0 0 Z M-7.390625 2.3203125 C-8.6822601 3.40504662 -8.6822601 3.40504662 -8.703125 6.0078125 C-8.30319777 10.24704118 -7.17268152 12.11024728 -4.390625 15.3203125 C-0.48307602 17.72495803 2.32176662 18.68700016 6.796875 17.8203125 C10.65119438 16.6177051 12.48720868 14.80066527 14.609375 11.3203125 C14.939375 10.3303125 15.269375 9.3403125 15.609375 8.3203125 C14.57296875 8.05476563 13.5365625 7.78921875 12.46875 7.515625 C11.09889744 7.15908803 9.72910912 6.8023042 8.359375 6.4453125 C7.67746094 6.27128906 6.99554688 6.09726562 6.29296875 5.91796875 C3.52771687 5.1930969 0.93135254 4.48355286 -1.625 3.1875 C-3.66116448 2.026414 -3.66116448 2.026414 -7.390625 2.3203125 Z M10.609375 2.3203125 C10.279375 2.9803125 9.949375 3.6403125 9.609375 4.3203125 C12.579375 4.8153125 12.579375 4.8153125 15.609375 5.3203125 C15.279375 4.3303125 14.949375 3.3403125 14.609375 2.3203125 C13.289375 2.3203125 11.969375 2.3203125 10.609375 2.3203125 Z " fill="#000000" transform="translate(28.390625,38.6796875)"/>
<path d="M0 0 C3 1 3 1 4 2.875 C4.33 3.57625 4.66 4.2775 5 5 C6.5412312 6.70921589 6.5412312 6.70921589 8 8 C7.360625 8.2475 6.72125 8.495 6.0625 8.75 C3.81258459 9.81562433 3.81258459 9.81562433 3.25 12.125 C3.1675 12.74375 3.085 13.3625 3 14 C2.01 14 1.02 14 0 14 C-0.268125 13.360625 -0.53625 12.72125 -0.8125 12.0625 C-1.88667752 9.66868314 -1.88667752 9.66868314 -5 9 C-5 8.01 -5 7.02 -5 6 C-3.68 5.67 -2.36 5.34 -1 5 C-0.67 3.35 -0.34 1.7 0 0 Z " fill="#000000" transform="translate(14,14)"/>
<path d="M0 0 C0.66 0 1.32 0 2 0 C2.33 1.65 2.66 3.3 3 5 C4.32 5.33 5.64 5.66 7 6 C7 6.99 7 7.98 7 9 C6.01 9.33 5.02 9.66 4 10 C2.79117904 12.00016466 2.79117904 12.00016466 2 14 C1.01 13.67 0.02 13.34 -1 13 C-1.33 12.01 -1.66 11.02 -2 10 C-4.00016466 8.79117904 -4.00016466 8.79117904 -6 8 C-5.38125 7.4225 -4.7625 6.845 -4.125 6.25 C-2.18652947 4.19750179 -1.09985751 2.56633418 0 0 Z " fill="#000000" transform="translate(48,3)"/>
</svg>
