<?xml version="1.0" encoding="UTF-8"?>
<svg version="1.1" xmlns="http://www.w3.org/2000/svg" width="64" height="64">
<path d="M0 0 C0.81925123 12.49358125 -4.42142728 23.41819494 -12.5625 32.80078125 C-13.66462597 33.91230033 -14.82420345 34.96672424 -16 36 C-13.36 38.31 -10.72 40.62 -8 43 C-6.68 42.01 -5.36 41.02 -4 40 C-3.01 40 -2.02 40 -1 40 C-1 40.99 -1 41.98 -1 43 C-2.98 43.495 -2.98 43.495 -5 44 C-4.505 44.45375 -4.01 44.9075 -3.5 45.375 C-2 47 -2 47 -2 49 C-0.35 49.66 1.3 50.32 3 51 C2.49396008 53.16874252 2.00016187 54.99967627 1 57 C-0.9375 56.1875 -0.9375 56.1875 -3 55 C-3.33 54.01 -3.66 53.02 -4 52 C-6.50447516 50.78130071 -6.50447516 50.78130071 -9 50 C-9.33 51.32 -9.66 52.64 -10 54 C-10.99 53.67 -11.98 53.34 -13 53 C-12.67 51.35 -12.34 49.7 -12 48 C-13.2608012 46.96680187 -14.53403258 45.94875621 -15.8125 44.9375 C-16.52019531 44.36902344 -17.22789063 43.80054688 -17.95703125 43.21484375 C-18.63121094 42.81394531 -19.30539063 42.41304687 -20 42 C-21.485 42.495 -21.485 42.495 -23 43 C-23 44.32 -23 45.64 -23 47 C-23.680625 47.0825 -24.36125 47.165 -25.0625 47.25 C-31.38743397 48.86487676 -35.65050784 52.26672912 -40 57 C-41 58 -41 58 -43.5625 58.0625 C-44.366875 58.041875 -45.17125 58.02125 -46 58 C-46.33 56.35 -46.66 54.7 -47 53 C-45.40207898 51.82479354 -43.79643092 50.66008753 -42.1875 49.5 C-40.84751953 48.52546875 -40.84751953 48.52546875 -39.48046875 47.53125 C-37 46 -37 46 -34 46 C-33.01879536 42.94736336 -33.01879536 41.05263664 -34 38 C-32.35 38 -30.7 38 -29 38 C-28.66825641 35.00514673 -28.66825641 35.00514673 -30.46875 33.34375 C-31.1390625 32.7353125 -31.809375 32.126875 -32.5 31.5 C-39.9178367 24.33205496 -48.37419464 14.66611569 -49.25 3.9375 C-49.1675 3.298125 -49.085 2.65875 -49 2 C-46.45057317 4.36457413 -44.63158401 6.93732475 -42.6875 9.8125 C-37.30429739 17.34696369 -30.65438025 23.59796282 -24 30 C-19.72034758 25.89875709 -18.20565494 21.08482404 -17.8125 15.1875 C-17.8125 12.78378143 -17.86473945 10.39962233 -18 8 C-17.26394531 7.75765625 -16.52789062 7.5153125 -15.76953125 7.265625 C-11.09608468 5.66047823 -4.21747329 0 0 0 Z " fill="#000000" transform="translate(55,3)"/>
</svg>
